/* XPM */
static char *f4897910bc604d54cc0338f7f22631fc6G9gDWgi11qQzl7e[] = {
/* columns rows colors chars-per-pixel */
"64 64 175 2 ",
"   c None",
".  c #010202",
"X  c #070807",
"o  c #040708",
"O  c #050809",
"+  c #080B0B",
"@  c #070E14",
"#  c #080F17",
"$  c #0C1315",
"%  c #09121B",
"&  c #0E191D",
"*  c #0A1521",
"=  c #0C1A2A",
"-  c #0B1826",
";  c #121E23",
":  c #122025",
">  c #0E2033",
",  c #192B33",
"<  c #11253D",
"1  c #1B2F38",
"2  c #1E333D",
"3  c #132944",
"4  c #152F4E",
"5  c #1F3640",
"6  c #173253",
"7  c #1A385E",
"8  c #1C3758",
"9  c #203741",
"0  c #233C48",
"q  c #1B3B63",
"w  c #26404D",
"e  c #294653",
"r  c #2B4B58",
"t  c #274451",
"y  c #1D406D",
"u  c #1F4472",
"i  c #345463",
"p  c #365E6F",
"a  c #3B6679",
"s  c #616363",
"d  c #787979",
"f  c #2A5D9C",
"g  c #2A5FA1",
"h  c #1F64BB",
"j  c #2B61A4",
"k  c #2D64A9",
"l  c #2266BB",
"z  c #2568BD",
"x  c #2D6DBE",
"c  c #316EBD",
"v  c #306CB7",
"b  c #3271BF",
"n  c #3F7EBD",
"m  c #406C80",
"M  c #437287",
"N  c #44748A",
"B  c #46788E",
"V  c #487C94",
"C  c #2D6EC1",
"Z  c #316FC1",
"A  c #2E70C4",
"S  c #3372C1",
"D  c #3976C2",
"F  c #3778C4",
"G  c #3C7AC5",
"H  c #3576C9",
"J  c #3679CE",
"K  c #377BD1",
"L  c #447EC6",
"P  c #4F86A0",
"I  c #538EA8",
"U  c #5C9EBC",
"Y  c #5DA0BF",
"T  c #3F82C9",
"R  c #3981DC",
"E  c #4880C7",
"W  c #4286CC",
"Q  c #4786CB",
"!  c #5589CA",
"~  c #5B8DCD",
"^  c #5086C9",
"/  c #498FD1",
"(  c #478DD0",
")  c #568CD0",
"_  c #4B92D4",
"`  c #5196D4",
"'  c #6393CF",
"]  c #6896D1",
"[  c #6D9AD2",
"{  c #749FD4",
"}  c #5EA2C2",
"|  c #5DA9DE",
" . c #57A3DC",
".. c #61A6C5",
"X. c #63AACB",
"o. c #66AFD0",
"O. c #76A0D6",
"+. c #7AA3D6",
"@. c #67B1D3",
"#. c #6CB8DC",
"$. c #71BBDE",
"%. c #62AFE2",
"&. c #6BBCE3",
"*. c #6ABBE9",
"=. c #64B1E4",
"-. c #77BAE7",
";. c #6EC1ED",
":. c #73C5ED",
">. c #75C9EF",
",. c #78C9EF",
"<. c #71C0E5",
"1. c #65C4F0",
"2. c #6EC7F1",
"3. c #65C8F6",
"4. c #74C7F0",
"5. c #76CAF1",
"6. c #79CDF3",
"7. c #77CFF8",
"8. c #7BD1F6",
"9. c #7BD4FC",
"0. c #7ED9FF",
"q. c #77D1F6",
"w. c #838484",
"e. c #888A8B",
"r. c #939494",
"t. c #989999",
"y. c #A2A3A3",
"u. c #86ABDA",
"i. c #96B6DF",
"p. c #98B8DF",
"a. c #9FBDE2",
"s. c #A2BFE3",
"d. c #80CBEE",
"f. c #82CEF2",
"g. c #8CD2F3",
"h. c #81DCFF",
"j. c #89D5F9",
"k. c #96D6F4",
"l. c #9CDAF6",
"z. c #98D7F4",
"x. c #ADC6E5",
"c. c #A5C1E3",
"v. c #B2CAE7",
"b. c #B6CCE9",
"n. c #A1DBF5",
"m. c #ADDDF4",
"M. c #89EAFF",
"N. c #AFE0F7",
"B. c #B0E1F7",
"V. c #BCE5F9",
"C. c #B7E2F5",
"Z. c #CCCDCD",
"A. c #CECFD0",
"S. c #DBDBDA",
"D. c #CBDBEF",
"F. c #C4D6ED",
"G. c #C2E7F8",
"H. c #CCEBF9",
"J. c #D3E1F2",
"K. c #D9E4F3",
"L. c #D3EEFA",
"P. c #DFE9F5",
"I. c #E7EEF8",
"U. c #E7F5FC",
"Y. c #ECF6FA",
"T. c #F0F6FB",
"R. c #F5F8F9",
"E. c #F4F8F9",
"W. c #F6FBFD",
"Q. c #F3FAFE",
"!. c #F9FCFE",
"~. c white",
"^. c #FFFFFE",
"/. c #FCFEFE",
"(. c #FEFFFF",
/* pixels */
"                                                      O O O O O O O O O O                                                       ",
"                                                      . . . . . . . . . .                                                       ",
"                                                      e e e e e e e e e e                                                       ",
"                                            o o o . & 8.9.9.9.9.9.9.9.9.6.$ . o o o                                             ",
"                                            o o o . & :.5.>.>.>.,.,.,.5.<.$ . o o o                                             ",
"                                            o . a X.X.:.:.5.5.6.Y.W.T.Y.Y.A.S.d . O                                             ",
"                                            O . I M.0.9.0.8.4.f.~.~.~.~.~.~.~.y.. +                                             ",
"                                            o . i B N B M X.7.f.W.~.Z.e.r.r.t.s . O                                             ",
"                                                . . . . . m 0.d.R.~.d . . . . .                                                 ",
"                                                O O O + . N 9.d.R.~.w.. + + + O                                                 ",
"                                                      O . M 9.d.R.~.w.. +                                                       ",
"                                                      O . M 9.d.R.~.w.. +                                                       ",
"                                                      O . M 9.d.R.~.w.. +                                                       ",
"                                                      O . M 9.d.R.~.w.. +                                                       ",
"                                                      O . M 9.d.R.~.w.. +                                                       ",
"                                                      O . M 9.d.R.~.w.. +                                                       ",
"                                                      O . M 9.d.R.~.w.. +                                                       ",
"                                                      O . M 9.d.R.~.w.. +                                                       ",
"                                                      O . M 9.d.R.~.w.. +                                                       ",
"                                                      O . M 9.d.R.~.w.. +                                                       ",
"                                                      O . M 9.d.R.~.w.. +                                                       ",
"                                                      o . M 9.d.R.~.w.. X                                                       ",
"                                                      $ . B 9.d.R.~.e.. $                                                       ",
"                                            O O O o ; &.<.:.5.f.W.~.C.&.$.$ o O O O                                             ",
"                                            . . . . + 5.7.5.5.f.~.~.V.3.;.O . . . .                                             ",
"                                          ; r r r e p >.5.5.5.6.H.L.G.B.m.i t e e e                                             ",
"                                  o o o . , 0.9.9.9.9.5.5.5.5.5.4.1.V.~.~.j.9.9.9.9.; . o o o                                   ",
"                                  . . o . , 5.>.>.>.>.5.5.5.5.5.6.2.V.~.!.g.:.>.5.>.: . o o o                                   ",
"                            O . 0 ..U Y U X.5.5.5.5.5.5.5.5.5.5.5.5.f.k.k.U.!.G.4.5.o.......X.2 . o                             ",
"                            O . e h.8.8.8.8.5.5.5.5.5.5.5.5.5.5.5.5.5.4.5.W.~.L.4.5.7.8.8.8.9.5 . O                             ",
"                            O . e 8.:.>.>.5.5.5.5.5.5.5.5.5.5.5.5.5.5.5.6.Q.~.L.4.5.5.5.>.>.7.5 . O                             ",
"                            O . e 9.>.5.5.5.5.5.5.5.5.5.5.5.5.5.5.5.5.5.6.Q.~.L.4.5.5.5.5.5.8.9 . O                             ",
"                            . . w 9.>.5.5.5.5.5.5.5.5.5.5.5.5.5.5.5.5.5.6.!.~.L.2.5.5.5.5.5.8.1 . .                             ",
"                        o O V I ..7.5.5.5.5.5.5.5.5.5.5.5.5.5.5.5.5.5.5.5.n.n.V.U.U.g.4.5.5.5.U P M o o                         ",
"                      o o O #.h.7.5.5.5.5.5.5.5.6.6.6.5.5.5.5.5.5.5.5.5.5.4.1.m.~.~.l.4.6.6.6.8.h.X.. o                         ",
"                        o O o.7.>.5.5.5.5.5.5.5.;.*.*.5.5.5.5.5.5.5.5.5.5.6.4.N.~.~.z.4.:.*.*.:.7.} . o                         ",
"                        o + @.q.5.5.5.5.5.5.5.5.W x G 5.5.5.5.5.5.5.5.5.5.5.2.N.~.~.k.5.%.c x | 9.} o o                         ",
"                        . . @.8.5.5.5.6.7.7.7.8.W x G 6.7.7.7.7.5.5.5.5.5.5.2.B.~.~.l.q.=.c x | h.... .                         ",
"                  o . 3 u u &.7.5.5.5.` ( / / / F S F / / / / _ 5.5.5.5.5.5.5.-.{ O.` _ W S S T _ n y u < . o                   ",
"                  O . q R H ;.6.5.6.5.F x x x x S S S x x x x S 4.6.5.6.6.5.8. .l x x x c S S c x Z H R 6 . o                   ",
"                  o . 7 H c *.5.:.:.:.G S S S S S S S S S S S F :.4.:.:.:.:.5. .c F S S S S S S S S c H 4 . o                   ",
"                  o . 7 J b F F F F F S S S S S S S S S S S S S F F F F F G G F S S S S S F F S S S b J 4 . o                   ",
"                  o . 7 J b S S S S S S S S S S S S S S S S S S S S S S S z l x S S S S S l l C S S b J 4 . o                   ",
"                  o . 7 J c S S S S S S S S S S S S S S S S S S S S S S S u.a.] x S S C L i.i.E x S b H 4 . o                   ",
"                  O . 7 K b S S S S S S S S S S S S S S S S S S S S S S S T.~.v.l F S x ~ ~.~.] x S b J 4 . o                   ",
"                  o . 7 H c S S S S S S S S S S S S S S S S S S S S S S S K.~.s.z F S x ! W.~.' x S c H 4 . o                   ",
"                      @ @ # k C ' P.J.L x S S S S S S S z u.I.F.D S S S S G L D S S S S S L L S S j @ @                         ",
"                        . o k C +.~.~.^ x S S S S S S F l x.~.~.D S S S S S x S S S S S S z z x H f . .                         ",
"                        o O k A ! x.s.L S S S S S S S S x [ v.p.F S S S S S S S S S S S G { O.G S f o o                         ",
"                        o o k H x l l b S S S S S S S S S x l z S S S S S S S S S S S x ~ ~.~.' A f . o                         ",
"                        o o k H S F F S S S S S S S S S S S F S x x x S S S S S S S S x ~ ~.~.' A f . o                         ",
"                            - % 7 H b b S S S S S S S S S S S D v.D.{ x S S S S S S S S D ! ) 8 * =                             ",
"                            . . < H b S S S S S x x x S S S C G ~.~.c.h F S S S S S S S S x A = . .                             ",
"                            O . 3 H b S S S S S L ~ E S S S S D v.D.{ x S S S S S S S S S S H > . o                             ",
"                            o . 3 H c b b b S z v.~.J.Z S S S S x x x S S S S S S S b b b b S > . o                             ",
"                            o . 3 K H H H H S z b.~.K.C S S S S S S S S S S S S S S H H H H J > . o                             ",
"                                = 3 3 3 < q S x ! +.~ S S S S S S S S S S b b b b b 6 < < < < %                                 ",
"                                  . . . . * H H A C A S S S S S S S S S S H H H H H @ . . . .                                   ",
"                                  o o o . = g f f f j S S S S S S S S S S j g g j g % . o o o                                   ",
"                                            o o o . % c b c c c c c c b v @ . o o o                                             ",
"                                            o o o . % J K J K K K K J K H @ . o o o                                             ",
"                                            o       @ q q q q q q q q q q                                                       ",
"                                                      . . . . . . . . . .                                                       ",
"                                                      o O O O O O O O O o                                                       "
};
