/* XPM */
static char *_62b6d65263e46d6fc7dc1a58b236e08IBDZqJeOcQQbepNe[] = {
/* columns rows colors chars-per-pixel */
"64 64 183 2 ",
"   c None",
".  c #000507",
"X  c #020709",
"o  c #060B0D",
"O  c #0A0D0F",
"+  c #090E11",
"@  c #0D1115",
"#  c #051219",
"$  c #09161D",
"%  c #111519",
"&  c #0D1B24",
"*  c #0E1F29",
"=  c #101C23",
"-  c #101F28",
";  c #0F202A",
":  c #152027",
">  c #13232D",
",  c #1C232A",
"<  c #172630",
"1  c #182731",
"2  c #172933",
"3  c #1B2A34",
"4  c #1E2E39",
"5  c #1F303B",
"6  c #212F39",
"7  c #292F36",
"8  c #23313B",
"9  c #29353E",
"0  c #2B3741",
"q  c #2C3942",
"w  c #263642",
"e  c #313C45",
"r  c #3B3E43",
"t  c #343F49",
"y  c #36424D",
"u  c #3A444E",
"i  c #304655",
"p  c #3C4751",
"a  c #3E4853",
"s  c #344857",
"d  c #3F5261",
"f  c #42474E",
"g  c #434C55",
"h  c #454E58",
"j  c #484F59",
"k  c #4D4F57",
"l  c #4B535D",
"z  c #50555E",
"x  c #4C5661",
"c  c #4C5E6C",
"v  c #455C6E",
"b  c #525A65",
"n  c #5A5D66",
"m  c #565E69",
"M  c #5A5F68",
"N  c #475F71",
"B  c #495E70",
"V  c #5D626C",
"C  c #496274",
"Z  c #4B6679",
"A  c #5D6470",
"S  c #5F6B78",
"D  c #61646D",
"F  c #616772",
"G  c #646974",
"H  c #6A6C75",
"J  c #656D79",
"K  c #6C6E78",
"L  c #6E707A",
"P  c #72737C",
"I  c #526D82",
"U  c #5D768B",
"Y  c #5D788E",
"T  c #57748A",
"R  c #5D7D94",
"E  c #627A8E",
"W  c #647485",
"Q  c #767781",
"!  c #767984",
"~  c #7A7B85",
"^  c #717E8C",
"/  c #7D7E89",
"(  c #647D93",
")  c #697E94",
"_  c #807F89",
"`  c #7F818B",
"'  c #608097",
"]  c #6D8195",
"[  c #64839B",
"{  c #69869D",
"}  c #798494",
"|  c #71869B",
" . c #71899F",
".. c #6586A0",
"X. c #6987A0",
"o. c #6589A3",
"O. c #6B8AA3",
"+. c #6E8FA9",
"@. c #728CA4",
"#. c #718FA8",
"$. c #6F91AC",
"%. c #7493AD",
"&. c #7A95AE",
"*. c #7596B1",
"=. c #7997B1",
"-. c #7699B6",
";. c #7D9AB5",
":. c #7B9DBA",
">. c #7EA0BE",
",. c #7EA1C0",
"<. c #82828C",
"1. c #848591",
"2. c #868894",
"3. c #8A8A96",
"4. c #8D8D99",
"5. c #858A97",
"6. c #8F909D",
"7. c #91919D",
"8. c #8297AE",
"9. c #8198AF",
"0. c #9495A2",
"q. c #9899A7",
"w. c #9B9CAA",
"e. c #9798A5",
"r. c #829DB6",
"t. c #8A9FB6",
"y. c #829FB9",
"u. c #84A1BC",
"i. c #88A4BE",
"p. c #A0A0AE",
"a. c #A4A4B3",
"s. c #ABABBB",
"d. c #B0AFBE",
"f. c #85A5C2",
"g. c #89A6C2",
"h. c #8BA9C6",
"j. c #86AACA",
"k. c #8CADCC",
"l. c #92AECB",
"z. c #90ABC7",
"x. c #8FB0CF",
"c. c #92B0CE",
"v. c #98B2CF",
"b. c #8DAFD0",
"n. c #8FB1D0",
"m. c #94B4D3",
"M. c #99B6D4",
"N. c #9CB8D7",
"B. c #97B9D9",
"V. c #9DBAD9",
"C. c #B4B3C4",
"Z. c #A0BAD7",
"A. c #A2BEDC",
"S. c #A2BDDD",
"D. c #A5BFDD",
"F. c #A5BFDE",
"G. c #A2BDDB",
"H. c #A0BFE0",
"J. c #A5C0DF",
"K. c #A6C0DE",
"L. c #A5C0DE",
"P. c #A8C1DF",
"I. c #A8C1DF",
"U. c #A7C2E1",
"Y. c #A7C1E1",
"T. c #A4C1E1",
"R. c #A9C2E1",
"E. c #AAC3E1",
"W. c #A9C3E2",
"Q. c #ABC4E2",
"!. c #ADC5E3",
"~. c #AFC7E5",
"^. c #ADC6E4",
"/. c #ABC4E3",
"(. c #AFC8E6",
"). c #AFC8E7",
"_. c #AFC9E8",
"`. c #B0C8E7",
"'. c #B1C8E6",
"]. c #B3CBE9",
"[. c #B3CCEA",
"{. c #B0C7E5",
"}. c #B7D1F0",
/* pixels */
"                                            ;.N.N.N.N.N.N.M.G.%.%.G.M.M.N.N.N.M.Z.;.                                            ",
"                                          O.Z.(.^.S.R.^.^./.J.;.=.[.R.N.R.R.^.S.S.D.%.                                          ",
"                                        O.N.^.J.!.m.U.G.S.!.[.;.=.U.D.!.N.N.`.R.R./.D.%.                                        ",
"                                      u.Z.[.U.S.!.R.J.m.S.m.U.;.=.V.S.^.R.J.G./.(.V.(.R.l.                                      ",
"                                    ' O.O.O.O.O.z.[.R.V.G.k.J.;.=./.R.R.R./.k.M.%.%.%.%.&.{ T                                   ",
"                              O.D.k.%.&.%.%.;.{ O.D.U.G.S.N.R.r.+.V.N.N.M.V.J.&.R O.{ { { { %.J.i.                              ",
"                            #.z.S.M.^.V.(.^.S.z.T z.U.G.m.m.V.=.o.n.V.R.D.j.N.R y.U.D.!.G.P.M.S.N.*.                            ",
"                          %.N.m.m.V.k.M.m.R.k.^.y.R D.x.k.k.m.%.+.N.x.M.j.m.O.@.R.m.U.V.m.k.N.M.k.D.;.                          ",
"                        y.`./.J.`.m.M.J.Z.V.R.`.N.{ y.N.m.M.m.+.%.V.j.m.U.z.R z.`.R.G.V.V.m.m./.U.U.[.g.                        ",
"                      R &.=.%.%.;.M.S.`.J.m.M.J.[.;.R j.m.N.N.o.o.k.M.j.S.%.R ^.!.V.m.G.{.D.N.h.;.;.r.u.O.                      ",
"                    &.=.O.O.@.O.R c.V.V.m.n.Z.G.J.@.^ c i i c } W d s i W } W m.U.M.m.x.S.m.N.O.R [ ' ' X.y.                    ",
"                  #.P.J.R.`.S.^.O.#.!.m.k.J.`.R.Y / <.g - : u 3.P 9 : : F 2.D B M.^.R.k.k.`.u.R P.S.R.R.G.[.;.                  ",
"                  z.m.m.m.!.m.D.P.R i.[.M.S.G.Y w <.<.h < 1 a 3.P q 3 1 G 1.H : N V.U.m./.v.R z./.m.!.V.m.N.h.                  ",
"                g.J.k.V.V.S.D.!.^.&.O.R.z.( N 2 4 1.<.g > > p 3.P 0 < > G 1.H 3 > v | y.[.&.{ P.^.J.R.N.V.k.V.l.                ",
"              u.S.m.V.^./.M.m.R.(.N.R %.] M 4 4 9 ` / h 3 3 a <.P q 4 3 F 1.H 9 4 3 <.^ %.R g.`.R.V.m.S.^.G.m.J.f.              ",
"              M.m.k.M.V.S.k.M.M./.(.&.S / 1.G K H ` 4.H H H ! 4.K K H K 3.P P H L 2.P P J @.J.!.G.M.k.m.J.m.m.m.N.$.            ",
"              k.x.m.k.m.k.m.k.M./.h.5.<.q.a./ 7.3.q.s./ 7.3.q.s.Q 4.4.7.s.! 3.3.0.C.~ 1.3.4.u.^.G.k.m.k.m.m.m.n.j.%.            ",
"              l.N.N.m.n.N.N.k.m.g.d b ! 4.Q b b m 3.1.G b b G 3./ V b b ! 3.~ m b m 1.1.K z u &.H.j.N.N.m.n.N.N.m.%.            ",
"              :.k.k.c.,.v.f.k.j.O.3 & V 3.V > * 3 1.<.u & * y 3.P 8 * * F 1.G < * 3 <./ p # X T n.k.f.l.f.c.M.l.f.o.            ",
"              R ' ' ' ' ' R ' [ R 8 > A 4.D 4 3 8 1.<.h < 3 a 3.P q 3 3 G 1.H 8 3 9 1.<.h = % C { ' R ' ( ( ' ' R R             ",
"              M.J.M.G.J.D.J.G.V.;.4 > A 4.V 3 3 8 1.<.g > < p 3.P 0 3 < G 1.H 6 < 8 1.<.g & + E S.M.Z.Z.Z.N.v.N.M.%.            ",
"              G.(.m./.V.G.m.V.S.*.4 > A 3.D 4 3 8 1.<.h < 1 a 3.P q 3 1 G 1.H 6 3 8 1.<.h = @ U T.S.m.G.V.!.m./.P.=.            ",
"              Z.^.V./.V.G.m.V.U.r.2 * V 4.V < > 3 1.<.g * : u 3.P 9 > : G 2.H 3 > 3 1.<.g $ X ( U.N.k.N.m./.S.^.D.=.            ",
"              G.J.m.V.^.R.S.S./.;.h h G / H j h l ~ / M h h n / P l h h L ~ K l h l ~ Q M g r { U.G.G.S.^.S.m.S.D.=.            ",
"              G.J.m.k.D.M.M.k.V.;./ 1.~ 7.w.Q 1._ 6.a.P 1.<.7.a.K <.<.2.a.P / <.3.d.P ~ <.1.<.&.V.k.m.m.R.m.k.S.D.=.            ",
"              N.m.x.x.k.m.k.m.n.;.~ 1.2.0.4.~ 1.<.7.0./ 1.` 3.0.<.1.<.1.0.1.3.<.1.4.1.3.1.<./ 8.n.m.x.m.m.k.m.m.Z.;.            ",
"              M.k.m.V.N.k.N.N.V.;.8 1 A 3.D 8 4 9 <.<.j 3 3 a 2.P q 4 3 G 1.H 9 3 9 1.<.h : @ E H.m.N.n.m.N.m.j.m.;.            ",
"              -.f.f.f.f.:.h.f.f.o.4 : V 4.V 3 < 6 1.<.g > > p 3.P 0 < > G 1.H 4 > 8 1.<.g & + I j.h.v.h.f.h.f.k.>.+.            ",
"              ' { ' [ [ [ [ [ { R 8 > A 4.V 4 3 8 1.<.g > < p 3.P 0 3 < G 1.H 4 1 8 1.<.g & @ C ..' ' ' ' ' ' { ' R             ",
"              M.G.R.P.P.R.V.V.`.r.4 > A 3.V 4 3 8 1.<.h < < p 3.P q 3 < G 1.H 6 1 8 1.<.g = + ( [.Z.N.P.P.P.R.G.M.;.            ",
"              k.J.m.m.N.J.V.N.[.y.3 : V 4.V 3 > 4 1.<.g > > p 4.P 9 > > G 1.H 3 > 6 1.<.g $ o ( }.G.m.!.V.V.m.U.c.$.            ",
"              M.S.M.N.V.D.J.G.[.u.q 9 F <.D e q t / ~ l 0 0 h ` P u q 0 F <.H t 0 e ` / l 7 , ] [.J.D./.M.N.k.S.M.;.            ",
"              M.S.Z.G.!./.m.m.(.u.L P P <.4.K P P <.0.K P P ` 0.K P P Q 7.L P P ~ 0.P P P P K 8._.M.m.S.^.G.G.S.M.$.            ",
"              M.m.k.M.N.V.k.M.[.i.1.4.1.0.w./ 4.2.0.a./ 4.3.0.a./ 4.3.4.a./ 3.3.4.a./ 2.3.4.1.t.(.V.k.m.S.m.m.n.M.%.            ",
"              k.x.m.k.m.k.m.k.V.u.p y L 3.H p u a 1.<.M y y b 2.~ h u y L 3.P a y p 1.<.m e 7  ./.k.m.k.m.m.m.m.k.%.            ",
"              c.V.V.m.n.V.N.n.m.y.2 * V 4.V < > 3 1.<.a ; : u 3.P 9 > : G 1.H 3 > 4 <._ a $ X ) T.j.M.N.m.m.V.N.m.%.            ",
"              *.f.f.f.-.g.:.f.>.o.8 > A 4.D 4 3 8 1.<.h < 1 a 3.P q 3 1 G 1.H 6 3 8 1.<.h = @ T j.z.,.k.f.k.l.k.:.o.            ",
"              { { { { { { { { O.R 8 > A 3.V 3 3 8 1.<.g > < p 3.P 0 3 < G 1.H 6 1 8 1.<.g & @ C O.' ' ' ' ' [ [ ' R             ",
"              Z.!.M.J.R.P.P.J.S.r.4 > A 4.D 3 1 6 1.<.g > > p 3.P 0 < > G 1.H 4 < 8 1.<.g & O ( U.Z.R.P.P.J.m.J.Z.%.            ",
"              G.^.m.R.N.V.k.N.J.%.8 > A 3.V 4 3 9 <./ h < 3 p 1.P q 3 3 F 1.H 8 1 6 1.<.h = @ U V.G.m.V.V./.m./.J.=.            ",
"              Z.^.G./.V.G.m.V.S.y.V D K ~ ~ D D D ~ <.G D D K <.L F D D ~ P L D D P P P H D n &.U.G.m.V.N./.V.!.D.=.            ",
"              G.S.m.N.^.J.V.V.U.;.1.4.<.0.a./ 4.1.0.s.~ 4.2.e.a.P 3.3.4.s.Q 1.2.7.C.Q ` 1.4.3.9.S.G.G.S.`.G.m.G.D.=.            ",
"              G./.m.k.D.m.m.j.S.r.m b ! 4.! m m V 3.2.H b b J 4./ A m b ~ 3./ V m V 1.1.K b k  .T.k.m.m.J.m.k.J.D.=.            ",
"              N.m.m.m.k.m.k.m.m.*.< & V 3.V > ; 3 1.<.p * * y 3.P 8 : * F 1.G 1 * 3 <./ a # . U B.c.k.m.m.k.m.n.N.;.            ",
"              M.k.m.V.N.k.S.N.S.*.4 > A 4.D 4 3 8 1.<.h < 1 a 3.P q 3 1 G 1.H 8 3 9 1.<.h = @ U V.M.V.n.m.N.M.k.m.;.            ",
"              *.f.u.u.u.:.f.u.u...8 > A 4.V 3 3 8 1.<.g > < p 3.P 0 3 < G 1.H 6 < 8 1.<.g & @ I j.k.c.k.f.k.f.c.:.O.            ",
"              { { { { { { { { { R 8 > A 3.D 4 3 8 1.<.h < 1 a 3.P q 3 1 G 1.H 6 3 9 1.<.h = @ C { ' ' ' ' ' ' ' ' R             ",
"              m.S.R.P.P.R.V.N.[.r.2 * V 4.V < : 3 1.<.a * * u 4.P 9 > * F 1.H 3 : 3 1.<.a # X E [.N.M.P.J.J.P.G.M.=.            ",
"              k.J.m.m.M.D.V.N.[.u.g g G / H h h l ~ ~ M g g b / P l h g K / K h g l ~ ~ M f r @.[.G.N.!.V.V.n.D.l.%.            ",
"              M.D.N.V.Z.J.D.G.[.u.! <.P 4.w.P <.~ 4.a.P <./ 4.p.K <./ <.a.K ~ / 1.s.P Q / <.~ t._.D.G./.V.V.m.J.N.;.            ",
"              m.S.V.V.!./.m.m.^.i.~ 1.1.0.0.~ 1.<.0.w./ 1.<.4.w./ 1.<.1.q.<.3.<.2.e.<.3.1.1./ t.(.M.m.D.`.G.S.D.N.$.            ",
"              m.m.k.M.M.V.k.M.[.u.8 3 F 3.D 9 6 0 <./ l 4 4 g 1.Q e 6 4 G 2.H 9 4 9 1.<.l , % ) [.N.k.m.G.m.m.b.m.$.            ",
"              k.m.m.k.m.k.m.j.V.y.3 : V 4.V 3 < 6 1.<.g > > p 3.P 9 < > G 1.H 4 > 6 <.<.g & o ) /.j.m.k.m.k.c.m.j.%.            ",
"              c.V.S.V.k.S.V.m.m.y.4 > A 4.V 4 3 8 1.<.g > < p 3.P 0 3 < G 1.H 6 1 8 <.<.g & + ] T.j.M.V.m.m.V.V.m.%.            ",
"              $.u.y.u.*.u.-.y.:...8 > A 3.V 4 3 8 1.<.g > < p 3.P 0 3 < G 1.H 6 1 8 1.<.g & @ I f.f.:.f.:.f.g.f.-...            ",
"              { O.O.{ O.X.O.{ O.( 5 : V 4.D 3 < 6 1.<.g > > p 3.P 0 < > G 1.H 4 < 8 1.<.g & @ C O.' { { { [ { { ' R             ",
"              Z.^.N.R./.R.R.P.U.r.8 1 A 2.V 8 3 9 ` / h 3 3 p <.P q 3 3 F 1.H 9 3 6 <./ h : @ ( U.G.P.P.P.P.m.R.G.*.            ",
"              G.^.M./.M.V.j.M.S.*.G K L <.1.G K H ` 4.H K H ! 4.K K H K 3.P P H L 2.P P L K G @.N.G.j.N.m./.m./.D.=.            ",
"              Z.^.V.R.G.S.M.G.J.u.2.7.1.q.a.<.7.3.q.s./ 7.4.q.a.~ 4.4.7.s.~ 3.4.0.C.~ 1.3.7.3.t.U.G.m.G.V.R.V./.D.=.            ",
"              G.S.m.N.`.J.V.N./.;.x l Q 3.P x x b 2.1.F l x F 3./ m x l ! 3.~ b x b 1.1.G j f { T.V.V.V.`.V.m.V.D.=.            ",
"              G.J.m.k.V.m.m.k.N.=.< & V 3.V > ; 3 1.<.u * * y 3.P 8 : * F 1.G 1 * 3 <._ a # . U V.k.m.m.V.x.n.S.D.=.            ",
"              N.k.k.m.k.m.k.m.n.=.4 > A 4.D 4 3 8 1.<.h < 1 a 3.P q 3 1 G 1.H 8 3 9 1.<.h = @ E B.m.k.k.m.k.m.k.N.;.            ",
"              m.b.m.V.N.k.J.N.T.*.4 > A 4.V 3 3 8 1.<.g > < p 3.P 0 3 < G 1.H 6 < 8 1.<.g & O T T.M.J.m.m.V.N.n.m.;.            ",
"              %.:.;.;.:.*.y.:.:.{ 5 > V 3.V 3 1 6 1.<.g > > p 3.P 0 1 > G 1.H 4 < 8 <.<.g * = Z :.;.y.;.;.:.*.y.*...            "
};
