/* XPM */
static char *b7e1eb26852f4053903b60ff6a5fab2aFB39e7lJVJ4Qmzo8[] = {
/* columns rows colors chars-per-pixel */
"64 64 197 2 ",
"   c None",
".  c #7F6274",
"X  c #825E7E",
"o  c #8A6B6C",
"O  c #947464",
"+  c #856573",
"@  c #A66F7E",
"#  c #DEAE32",
"$  c #D5A738",
"%  c #E1AF2F",
"&  c #E3B32E",
"*  c #EABA28",
"=  c #F1BF25",
"-  c #E2B231",
";  c #E4BC37",
":  c #E3AF35",
">  c #ECC11C",
",  c #F2C023",
"<  c #EDC431",
"1  c #FFDE35",
"2  c #F4D53C",
"3  c #FAD739",
"4  c #F0C730",
"5  c #FFE92C",
"6  c #FFE92B",
"7  c #FFF224",
"8  c #FFE234",
"9  c #B58E4E",
"0  c #BF9376",
"q  c #CE9F44",
"w  c #D3A046",
"e  c #DAB656",
"r  c #ECBB5B",
"t  c #EEBC57",
"y  c #E7AE49",
"u  c #CB8A68",
"i  c #C59478",
"p  c #D29A75",
"a  c #E69C7D",
"s  c #CCA464",
"d  c #E6B262",
"f  c #E9A574",
"g  c #F9D441",
"h  c #3B2D9C",
"j  c #3C309D",
"k  c #3C2DA2",
"l  c #423596",
"z  c #4F3C96",
"x  c #46359B",
"c  c #48369B",
"v  c #4A3B9C",
"b  c #463896",
"n  c #513E95",
"m  c #402D98",
"M  c #4030A0",
"N  c #4C34A2",
"B  c #5132AC",
"V  c #5F39A9",
"C  c #5D2FBB",
"Z  c #552EB5",
"A  c #5931B4",
"S  c #5530B2",
"D  c #4B2DAB",
"F  c #7B3DBA",
"G  c #345E9F",
"H  c #3558A1",
"J  c #1C79A9",
"K  c #247EA7",
"L  c #3B64B4",
"P  c #3066A4",
"I  c #5D478C",
"U  c #644D87",
"Y  c #695183",
"T  c #4A7F9F",
"R  c #4B47A8",
"E  c #5144A1",
"W  c #554AA3",
"Q  c #5A4FA7",
"!  c #5C53A6",
"~  c #5C53A8",
"^  c #7B42BC",
"/  c #6340B9",
"(  c #4E68A1",
")  c #797EB7",
"_  c #777BB5",
"`  c #591BDE",
"'  c #6724CF",
"]  c #6827CE",
"[  c #672DCC",
"{  c #6A2DCE",
"}  c #6C30CC",
"|  c #7835C8",
" . c #6425D5",
".. c #6729D2",
"X. c #6B2BD1",
"o. c #6223D9",
"O. c #6F26DB",
"+. c #712AD6",
"@. c #7429DA",
"#. c #7C27E2",
"$. c #7D20ED",
"%. c #875B92",
"&. c #996589",
"*. c #916A8F",
"=. c #A36B84",
"-. c #AB738D",
";. c #A26F94",
":. c #BB6A99",
">. c #B8709C",
",. c #B0718E",
"<. c #874DA7",
"1. c #834BB3",
"2. c #B35DA5",
"3. c #B15AB6",
"4. c #817FB2",
"5. c #8D6BA4",
"6. c #BB76A8",
"7. c #B860BB",
"8. c #963AD9",
"9. c #8D1BFF",
"0. c #8E17FF",
"q. c #911EFF",
"w. c #8525EB",
"e. c #8326E9",
"r. c #8D24F4",
"t. c #9224F7",
"y. c #9223FA",
"u. c #8B53C9",
"i. c #A84BCB",
"p. c #A342D8",
"a. c #8D76CF",
"s. c #1F81AA",
"d. c #2584A7",
"f. c #50869F",
"g. c #7B82B9",
"h. c #7A97C3",
"j. c #9D868F",
"k. c #A28F8E",
"l. c #BA878B",
"z. c #AC9798",
"x. c #848FBD",
"c. c #BE8DB3",
"v. c #B89CAF",
"b. c #9EA3BE",
"n. c #A2A6BE",
"m. c #A2A9BF",
"M. c #DA8E83",
"N. c #D48B89",
"B. c #DE9989",
"V. c #C38B8B",
"C. c #E19683",
"Z. c #EB9984",
"A. c #E49689",
"S. c #FCAC8D",
"D. c #EDA693",
"F. c #EDA895",
"G. c #F1A692",
"H. c #F7A891",
"J. c #EEA48F",
"K. c #E8B1A4",
"L. c #978BCF",
"P. c #988DCF",
"I. c #8B94C4",
"U. c #8E9DC3",
"Y. c #8E94C8",
"T. c #988DD0",
"R. c #9B94D0",
"E. c #94A5C6",
"W. c #96A9C7",
"Q. c #93A5C9",
"!. c #99A3CC",
"~. c #96A9C8",
"^. c #9AACC9",
"/. c #99A8C6",
"(. c #89B5D0",
"). c #B0ADC7",
"_. c #A4B3CE",
"`. c #A8B6CE",
"'. c #ABB8CF",
"]. c #B6B5C9",
"[. c #ADBBD1",
"{. c #AAB8D2",
"}. c #B0BED3",
"|. c #BDB6D1",
" X c #A9AFC5",
".X c #C7BAC3",
"XX c #CABAC2",
"oX c #AFC2DA",
"OX c #B1C2D2",
"+X c #B2C5DC",
"@X c #B6CCD1",
"#X c #BBCEE2",
"$X c #BDD2E4",
"%X c #BDD6EA",
"&X c #BED8E9",
"*X c #C0D5E7",
"=X c #C6D8E9",
/* pixels */
"                                            { { +.y.y.y.                                                                        ",
"                                            { { +.y.y.y.                                                                        ",
"                                            { { +.y.y.y.                                                                        ",
"                                      { { { { { +.t.t.t.y.y.y.                                                                  ",
"                                      { { { { { +.9.9.9.y.y.y.                                                                  ",
"                                      { { { { { | i.i.p.y.y.y.                                                                  ",
"                                { { {       { ..1.3 8 d y.y.y.                                                                  ",
"                                { { {       {  .1.8 7 r y.y.y.                                                                  ",
"                                { { {       { ..^ i s l.y.y.y.                                                                  ",
"                                            { { {  ...O.t.t.t.y.y.y.                                                            ",
"                                            { { { { { @.9.9.9.y.y.y.                                                            ",
"                                            { { { { ..| 2.2.i.y.y.y.                                                            ",
"                                            { { { {  .<.& > u 9.y.y.                                                            ",
"                                            o.o. .{  .<.& > u 9.y.y.                                                            ",
"                                          F =.@ &.{ ..| :.,.3.y.y.y.        y.                                                  ",
"                                      { ..F # > w { { @.9.9.9.y.y.y.y.y.y.y.y.y.                                                ",
"                                      X...F : , w { ..@.y.y.y.y.y.y.y.y.y.y.y.y.                                                ",
"                            { { { { { A Z V o O + A S C #.#.#.#.#.#.#.#.#.#.#.@.  { { { {                                       ",
"                          { { { { { { x b x k k k x l N { { { { { { [ [ [ [ [ { { { { { { {                                     ",
"                          X.X.X.X.X.{ x x x x x x x x B ............X.X.X.X.X.X.X.X.{ { {                                       ",
"                      x x B B B B B B ) g.4.-.,.*.P P ( >.>.>.>.>.5.L L R B B B B B A                                           ",
"                    x x x x x x x x v E.^.m.B.Z.V.d.s.f.C.C.C.B.Z.k.d.d.G x x x x x                                             ",
"                    x x x x x x x l c U.Q.b.N.M.l.K J T M.M.M.M.C.j.J K H x x x x x                                             ",
"                                _ ) g.E.Q.b.B.Z.B.z.z.z..X.X.X.XXX].(.(.h.                                                      ",
"                                ^.^.^.E.Q.n.F.H.H.S.S.K.%X%X%X%X%X%X=X=X                                                        ",
"                                E.E.E.E.Q.n.D.G.D.D.J.K.$X$X$X#X#X#X$X$X#X                                                      ",
"                                E.E.E.E.E./.].].].n.n. X$X%X|.6.6.c.%X$X$X                                                      ",
"                                E.E.E.W.E.^.{.[.`.Q.E.^.$X&X|.:.:.c.%X$X$X                                                      ",
"                                E.E.E.E.E.E.'.[.`.E.E.^.#X%X|.:.:.c.$X$X$X                                                      ",
"                                E.E.E.W E ! _.}.`.E.E.^.[.}.[.).).].[.[.[.                                                      ",
"                                W.~.E.c m E _.}.`.E.E.^.[.[.[.[.[.[.[.[.[.                                                      ",
"                                U.E.I.v l W _.[.`.W.E.^.[.[.[.[.[.[.{.{.{.                                                      ",
"                                v v v x x E E.W.^.'.'.'.[.[.OX#X$XoXE.W.~.                                                      ",
"                                x x x x x E U.E.^.[.[.[.[.[.OX$X*X+XE.E.E.                                                      ",
"                                x x x x x E U.W.^.[.[.[.'.`.[.$X*X+XE.E.E.                                                      ",
"                                x x x x x E U.E.^.[.[.`.W.E._.$X*XoXE.E.E.                            1 1 1                     ",
"                                x x x x x E E.~.^.[.[.`.E.E._.$X*X+XW.W.W.                            1 1 1                     ",
"                                x x x x x E x.I.U.[.}.{.E.E._.#X$X{.I.Y.Y.                            1 1 1                     ",
"                          x x x x x x x x x c x ~ #X$X+XE.E.^.[.OXL.{ } {                       1 1 1                           ",
"                          x x x x x x x x x x l Q #X*X+XE.E.^.[.OXL.] { {                       1 1 1                           ",
"                          x x x x x x x x x c l ~ #X*X+XE.E.^.[.OXL.{ { {                       3 8 1                           ",
"                          x x x x x x x x x x l Q #X$X+XE.E.^.{.OXL.{ { { { { {           - & -                                 ",
"                          x x x x x x x x x x l ~ *X=X#XE.E.^.OX@XT.{ { { { { {           & - &                                 ",
"                          x x x x x x x x x x x W !.!.!.^.^.!.T.R.a.' { { { { {           y & -                                 ",
"                          c c c       x x x x x x x h ! [.OXL.' { {       { { { } [ 6.S.D.                                      ",
"                          h j h       x x x x x x c l ! [.OXL.{ { {     { { { ..o.` 6.S.G.G.                                    ",
"                          &.%.*.e     c x x x x x c l ! [.OXP.{ { {       { o.<.=.&.V.  G.                                      ",
"                    1 1 1 f C.a g 8 2 n x c c c c c l ! '.OXL.{ { {             * *                                             ",
"                    1 1 1 a N.M.g 8 2 n x x k k k x l ! OX@XR.{ { {             - -                                             ",
"                    1 1 1 t d r 3 8 2 n x n o O + A Z / a.a.u.{ { {             & &                                             ",
"                    1 1 1 8 8 8 1 8 2 n M I # , w { X.X.' ' ] { { {                                                             ",
"                    8 8 8 8 8 8 8 8 2 n M I # = w { { { { } [ o.o.o.                                                            ",
"                    < < < < < < < 4 ; n x n + o X { { X.e.$.u.i 0 0                                                             ",
"                    % & % % & % # & $ z x x k k D { { @.y.0.7.7 5 5                                                             ",
"                    & & & & & & * * - z x x c b N { { +.t.9.7.5 8 8                                                             ",
"                                o + . c x c C C C { { +.t.q.8.;.;.;.                                                            ",
"                                k k k x x N { X.X.{ { +.y.y.w.o.o.o.                                                            ",
"                                c c c x x N [ { { { { @.y.y.w.{ { {                                                             ",
"                          x x z 9 9 9 z x N { ..^ e e i y.y.w.{ { {                                                             ",
"                          x x n $ = - z x N {  .1.8 7 r y.y.w.{ { {                                                             ",
"                          x x n q & $ z x N {  .1.2 8 d y.y.w.{ { {                                                             ",
"                    x x x x x c U Y U c x N { { | i.i.p.y.y.t.w.r.e.{ {                                                         ",
"                    x x x x x x x M x x x N { { +.9.9.9.y.y.y.y.y.w.{ { {                                                       ",
"                    x x x x x x c c c x x N { { +.t.t.t.y.y.y.y.y.w.{ { {                                                       "
};
